<svg width="8" height="12" viewBox="0 0 8 12" fill="none" xmlns="http://www.w3.org/2000/svg">
<mask id="path-1-inside-1_1119_11802" fill="white">
<path d="M6.62491 7.9395L4.37495 10.1894V0.410278H3.62495V10.1894L1.37505 7.9395L0.844727 8.46982L3.99998 11.6251L7.15523 8.46982L6.62491 7.9395Z"/>
</mask>
<path d="M6.62491 7.9395L4.37495 10.1894V0.410278H3.62495V10.1894L1.37505 7.9395L0.844727 8.46982L3.99998 11.6251L7.15523 8.46982L6.62491 7.9395Z" fill="#313131"/>
<path d="M6.62491 7.9395L7.33201 7.2324L6.62491 6.52529L5.9178 7.23239L6.62491 7.9395ZM4.37495 10.1894H3.37495V12.6036L5.08206 10.8965L4.37495 10.1894ZM4.37495 0.410278H5.37495V-0.589722H4.37495V0.410278ZM3.62495 0.410278V-0.589722H2.62495V0.410278H3.62495ZM3.62495 10.1894L2.91785 10.8965L4.62495 12.6036V10.1894H3.62495ZM1.37505 7.9395L2.08215 7.23239L1.37504 6.52529L0.66794 7.2324L1.37505 7.9395ZM0.844727 8.46982L0.13762 7.76272L-0.569489 8.46983L0.137622 9.17693L0.844727 8.46982ZM3.99998 11.6251L3.29287 12.3322L3.99998 13.0393L4.70708 12.3322L3.99998 11.6251ZM7.15523 8.46982L7.86233 9.17693L8.56944 8.46983L7.86233 7.76272L7.15523 8.46982ZM5.9178 7.23239L3.66785 9.48232L5.08206 10.8965L7.33201 8.64662L5.9178 7.23239ZM5.37495 10.1894V0.410278H3.37495V10.1894H5.37495ZM4.37495 -0.589722H3.62495V1.41028H4.37495V-0.589722ZM2.62495 0.410278V10.1894H4.62495V0.410278H2.62495ZM4.33206 9.48228L2.08215 7.23239L0.667944 8.64662L2.91785 10.8965L4.33206 9.48228ZM0.66794 7.2324L0.13762 7.76272L1.55183 9.17693L2.08215 8.64661L0.66794 7.2324ZM0.137622 9.17693L3.29287 12.3322L4.70708 10.9179L1.55183 7.76272L0.137622 9.17693ZM4.70708 12.3322L7.86233 9.17693L6.44812 7.76272L3.29287 10.9179L4.70708 12.3322ZM7.86233 7.76272L7.33201 7.2324L5.9178 8.64661L6.44812 9.17693L7.86233 7.76272Z" fill="#313131" mask="url(#path-1-inside-1_1119_11802)"/>
</svg>
